PathFileType	4	(X/Y/Z)	Run_200 01
DataRate	CameraRate	NumFrames	NumMarkers	Units	OrigDataRate	OrigDataStartFrame	OrigNumFrames
120	120	4	42	mm	120	72	128
Frame#	Time	LASI			RASI			LPSI			RPSI			RTH1			RTH2			RTH3			LTH1			LTH2			LTH3			RTB1			RTB2			RTB3			LTB1			LTB2			LTB3			RCAL			RTOE			RMT5			LCAL			LTOE			LMT5			LACR			RACR			CLAV			C7			RUA1			RUA2			RUA3			RLEL			LUA1			LUA2			LUA3			LLEL			RFAsuperior			RFAradius			RFAulna			LFAsuperior			LFAradius			LFAulna			LMEL			RMEL			
		X1	Y1	Z1	X2	Y2	Z2	X3	Y3	Z3	X4	Y4	Z4	X5	Y5	Z5	X6	Y6	Z6	X7	Y7	Z7	X8	Y8	Z8	X9	Y9	Z9	X10	Y10	Z10	X11	Y11	Z11	X12	Y12	Z12	X13	Y13	Z13	X14	Y14	Z14	X15	Y15	Z15	X16	Y16	Z16	X17	Y17	Z17	X18	Y18	Z18	X19	Y19	Z19	X20	Y20	Z20	X21	Y21	Z21	X22	Y22	Z22	X23	Y23	Z23	X24	Y24	Z24	X25	Y25	Z25	X26	Y26	Z26	X27	Y27	Z27	X28	Y28	Z28	X29	Y29	Z29	X30	Y30	Z30	X31	Y31	Z31	X32	Y32	Z32	X33	Y33	Z33	X34	Y34	Z34	X35	Y35	Z35	X36	Y36	Z36	X37	Y37	Z37	X38	Y38	Z38	X39	Y39	Z39	X40	Y40	Z40	X41	Y41	Z41	X42	Y42	Z42	

69	0.733333	1047.071883	985.890553	-438.362451	1039.601825	984.594195	-202.990679	878.342181	1022.402692	-376.883978	875.05163	1019.865993	-280.644998	1021.321069	825.439565	-153.018398	1160.670587	732.5721109999999	-177.086305	1149.218105	629.68215	-189.796268	983.675	815.858279	-499.260734	1054.919642	715.989564	-475.328095	977.885891	590.8204009999999	-455.456958	1166.602258	423.144204	-243.520916	1082.127302	417.559586	-192.71397	1038.267706	295.547419	-245.377044	982.702095	351.236071	-382.893859	902.162301	282.383478	-426.994165	873.57839	192.372669	-357.996345	858.06487	254.225466	-286.249747	1019.45194	120.284763	-264.581309	975.86454	117.901425	-163.15384	706.799811	111.824858	-354.908435	905.289749	73.982533	-299.134038	902.21412	40.695954	-406.57347	1063.236043	1452.358636	-524.172384	1015.607666	1453.153365	-158.845727	1103.345436	1404.584557	-306.851724	1000.956612	1495.024226	-353.136388	963.879308	1382.108803	-120.832747	940.536212	1299.523277	-133.934376	859.928751	1325.310031	-143.930167	791.015411	1236.737728	-125.358557	1036.365343	1371.65312	-575.912076	968.91615	1319.068287	-558.469167	1024.591389	1266.741695	-595.155134	956.436584	1169.636611	-632.840516	825.307633	1155.396302	-90.585339	839.7710949999999	967.728661	-85.545976	777.328653	970.771404	-114.648902	1037.264971	1158.315106	-608.037616	1183.898731	1125.853755	-485.936352	1170.273832	1062.099119	-513.48285	914.289041	1164.729334	-570.5667560000001	796.975625	1229.385435	-190.107074	
70	0.741667	1047.39636	989.722678	-439.449633	1039.529524	990.9822380000001	-203.58744	879.042203	1028.677263	-378.348664	875.168007	1026.495899	-281.98354	1021.477918	832.522995	-152.723001	1160.941564	740.233563	-177.645173	1149.529259	637.084462	-190.659532	979.370128	820.248973	-499.021412	1047.884384	718.6750050000001	-474.45179	966.944267	595.610742	-454.659849	1174.39946	428.357738	-243.827552	1089.920917	417.814919	-193.877528	1054.257525	292.974562	-245.793743	968.2982490000001	355.954253	-382.790637	887.605562	287.256057	-427.254776	859.19877	196.738059	-358.077542	877.084054	240.148782	-288.106595	1046.494804	116.77976	-264.18514	1002.104283	112.112332	-163.136109	692.701583	118.093931	-355.187615	889.3840269999999	74.788556	-298.713233	885.35867	40.9676	-406.247363	1064.783092	1460.132653	-523.172366	1014.52038	1459.278405	-158.699912	1103.338545	1411.126242	-305.897341	1001.213524	1501.043579	-352.632128	961.982164	1389.442818	-121.114527	938.086283	1306.781501	-134.716161	857.792559	1333.611859	-144.589901	787.625729	1245.968855	-127.016238	1038.983801	1379.185792	-575.058462	971.516361	1326.739042	-559.565429	1028.399086	1274.050587	-594.103977	961.059534	1175.911269	-631.802191	821.019873	1164.561515	-92.167237	834.237427	976.794597	-87.04937099999999	772.551756	979.911877	-116.965479	1041.80223	1166.756759	-606.1616320000001	1187.571792	1141.31155	-481.472789	1175.899822	1076.935561	-506.630548	917.801653	1172.017495	-569.790916	793.4634569999999	1239.053612	-191.726913	
71	0.75	1047.90891	993.972004	-440.269802	1039.688711	997.849471	-204.204119	879.984865	1035.465861	-379.833886	875.449418	1033.597774	-283.309071	1022.239176	840.430565	-152.270937	1160.795472	747.657433	-178.264741	1148.739268	644.297916	-191.642868	975.4027149999999	825.203257	-498.769122	1041.675315	722.084023	-473.452176	957.166005	601.328532	-454.736644	1181.476718	433.409951	-243.962404	1097.391554	417.67213	-194.656386	1070.374224	290.56378	-246.138354	954.430378	361.583786	-382.686697	873.680697	292.888467	-427.735951	845.484221	201.827556	-358.262736	896.850823	226.43075	-289.734066	1073.704728	113.905481	-264.595893	1029.113141	106.681746	-163.84149	679.317199	125.286844	-355.521045	873.801474	75.58472	-298.586355	868.558671	41.233415	-405.910162	1066.287799	1468.204905	-522.143465	1013.602881	1465.80764	-158.520453	1103.569379	1418.167616	-304.822226	1001.621495	1507.468718	-352.103924	960.336855	1397.138848	-121.336121	936.0216840000001	1314.240297	-135.613731	855.9518859999999	1342.209003	-145.237327	784.660971	1255.497454	-128.314915	1041.45304	1387.149733	-574.1758139999999	973.963535	1334.984491	-560.569628	1031.889463	1281.837274	-593.19165	965.1702340000001	1182.871856	-630.984829	817.4272580000001	1174.002954	-93.66089599999999	829.7219250000001	986.129632	-88.69548	768.491605	989.319127	-119.022197	1045.734722	1175.62024	-604.550344	1190.293123	1156.956948	-477.391847	1180.344112	1092.113096	-498.741262	920.883821	1179.880922	-569.421803	790.239941	1249.163694	-193.096841	
72	0.758333	1048.601492	998.568383	-440.729421	1040.065957	1005.078393	-204.918133	881.160029	1042.567469	-381.308513	875.962536	1041.013263	-284.644	1023.267174	848.928148	-151.716759	1160.141139	754.551439	-178.992862	1146.849016	651.1012899999999	-192.7169	971.83237	830.603711	-498.544928	1036.197723	726.025955	-472.470179	948.164484	607.8451679999999	-455.346176	1187.806653	438.277506	-244.08345	1104.691749	417.066759	-195.027088	1086.395446	288.378342	-246.58553	941.223889	367.803402	-382.940094	860.436205	299.1677	-428.606073	832.5927370000001	207.523255	-358.868353	917.226149	213.29684	-290.90551	1100.868987	111.73832	-266.082141	1056.889519	101.629928	-165.402511	666.720148	133.322462	-355.963731	858.564649	76.25566999999999	-298.792576	851.84047	41.493642	-405.683705	1067.785045	1476.418509	-521.107246	1012.867007	1472.550151	-158.413247	1103.93068	1425.495151	-303.694516	1002.188801	1514.185288	-351.557107	958.9926390000001	1405.004423	-121.495935	934.302261	1321.857611	-136.445865	854.430297	1350.963533	-145.77664	782.143141	1265.157962	-129.311616	1043.779947	1395.409797	-573.380751	976.2220579999999	1343.598422	-561.441679	1035.0322	1289.926819	-592.444888	968.788269	1190.344702	-630.3701160000001	814.4263580000001	1183.521564	-95.02794299999999	826.158823	995.539298	-90.420254	765.090901	998.822153	-120.825851	1049.129974	1184.783264	-603.181502	1192.170774	1172.517	-473.702827	1183.749642	1107.29346	-490.551065	923.5968350000001	1188.008295	-569.4173929999999	787.416323	1259.520641	-194.290316	
